<svg width="18" height="18" viewBox="0 0 18 18" fill="none" xmlns="http://www.w3.org/2000/svg">
<g clip-path="url(#clip0_414_22630)">
<path d="M4.19961 9.59844H3.59961V8.39844H4.19961C4.35874 8.39844 4.51135 8.46165 4.62387 8.57417C4.7364 8.6867 4.79961 8.83931 4.79961 8.99844C4.79961 9.15757 4.7364 9.31018 4.62387 9.4227C4.51135 9.53522 4.35874 9.59844 4.19961 9.59844ZM8.39961 11.9984V8.39844H8.99961C9.15874 8.39844 9.31135 8.46165 9.42387 8.57417C9.5364 8.6867 9.59961 8.83931 9.59961 8.99844V11.3984C9.59961 11.5576 9.5364 11.7102 9.42387 11.8227C9.31135 11.9352 9.15874 11.9984 8.99961 11.9984H8.39961Z" fill="#F24E1E"/>
<path fill-rule="evenodd" clip-rule="evenodd" d="M1.2002 1.8C1.2002 1.32261 1.38984 0.864773 1.7274 0.527208C2.06497 0.189642 2.52281 0 3.0002 0L12.8486 0L16.8002 3.9516V16.2C16.8002 16.6774 16.6106 17.1352 16.273 17.4728C15.9354 17.8104 15.4776 18 15.0002 18H3.0002C2.52281 18 2.06497 17.8104 1.7274 17.4728C1.38984 17.1352 1.2002 16.6774 1.2002 16.2V1.8ZM4.2002 7.2H2.4002V13.2H3.6002V10.8H4.2002C4.67759 10.8 5.13542 10.6104 5.47299 10.2728C5.81055 9.93523 6.0002 9.47739 6.0002 9C6.0002 8.52261 5.81055 8.06477 5.47299 7.72721C5.13542 7.38964 4.67759 7.2 4.2002 7.2ZM9.0002 7.2H7.2002V13.2H9.0002C9.47759 13.2 9.93542 13.0104 10.273 12.6728C10.6106 12.3352 10.8002 11.8774 10.8002 11.4V9C10.8002 8.52261 10.6106 8.06477 10.273 7.72721C9.93542 7.38964 9.47759 7.2 9.0002 7.2ZM12.0002 13.2V7.2H15.6002V8.4H13.2002V9.6H14.4002V10.8H13.2002V13.2H12.0002Z" fill="#F24E1E"/>
</g>
<defs>
<clipPath id="clip0_414_22630">
<rect width="18" height="18" fill="white"/>
</clipPath>
</defs>
</svg>
