<svg width="16" height="16" viewBox="0 0 16 16" fill="none" xmlns="http://www.w3.org/2000/svg">
<path d="M2.75 14C2.28587 14 1.84075 13.8156 1.51256 13.4874C1.18437 13.1592 1 12.7141 1 12.25V9.75C1 9.55109 1.07902 9.36032 1.21967 9.21967C1.36032 9.07902 1.55109 9 1.75 9C1.94891 9 2.13968 9.07902 2.28033 9.21967C2.42098 9.36032 2.5 9.55109 2.5 9.75V12.25C2.5 12.388 2.612 12.5 2.75 12.5H13.25C13.3163 12.5 13.3799 12.4737 13.4268 12.4268C13.4737 12.3799 13.5 12.3163 13.5 12.25V9.75C13.5 9.55109 13.579 9.36032 13.7197 9.21967C13.8603 9.07902 14.0511 9 14.25 9C14.4489 9 14.6397 9.07902 14.7803 9.21967C14.921 9.36032 15 9.55109 15 9.75V12.25C15 12.7141 14.8156 13.1592 14.4874 13.4874C14.1592 13.8156 13.7141 14 13.25 14H2.75Z" fill="white"/>
<path d="M11.7795 4.71934C11.8491 4.78894 11.9043 4.87157 11.942 4.96251C11.9797 5.05344 11.9991 5.15091 11.9991 5.24934C11.9991 5.34777 11.9797 5.44524 11.942 5.53617C11.9043 5.62711 11.8491 5.70974 11.7795 5.77934C11.7099 5.84894 11.6273 5.90415 11.5364 5.94182C11.4454 5.97949 11.348 5.99887 11.2495 5.99887C11.1511 5.99887 11.0536 5.97949 10.9627 5.94182C10.8718 5.90415 10.7891 5.84894 10.7195 5.77934L8.74953 3.81034V9.49934C8.74953 9.69825 8.67052 9.88902 8.52986 10.0297C8.38921 10.1703 8.19845 10.2493 7.99953 10.2493C7.80062 10.2493 7.60986 10.1703 7.4692 10.0297C7.32855 9.88902 7.24953 9.69825 7.24953 9.49934V3.81034L5.27953 5.77934C5.20993 5.84894 5.1273 5.90415 5.03637 5.94182C4.94543 5.97949 4.84796 5.99887 4.74953 5.99887C4.6511 5.99887 4.55364 5.97949 4.4627 5.94182C4.37176 5.90415 4.28913 5.84894 4.21953 5.77934C4.14993 5.70974 4.09472 5.62711 4.05705 5.53617C4.01939 5.44524 4 5.34777 4 5.24934C4 5.15091 4.01939 5.05344 4.05705 4.96251C4.09472 4.87157 4.14993 4.78894 4.21953 4.71934L7.46953 1.46934C7.61016 1.32889 7.80078 1.25 7.99953 1.25C8.19828 1.25 8.38891 1.32889 8.52953 1.46934L11.7795 4.71934Z" fill="white"/>
</svg>
