<svg width="20" height="20" viewBox="0 0 20 20" fill="none" xmlns="http://www.w3.org/2000/svg">
<path d="M14.9984 10.8307H10.8317V14.9974C10.8317 15.4557 10.4567 15.8307 9.99837 15.8307C9.54004 15.8307 9.16504 15.4557 9.16504 14.9974V10.8307H4.99837C4.54004 10.8307 4.16504 10.4557 4.16504 9.9974C4.16504 9.53906 4.54004 9.16406 4.99837 9.16406H9.16504V4.9974C9.16504 4.53906 9.54004 4.16406 9.99837 4.16406C10.4567 4.16406 10.8317 4.53906 10.8317 4.9974V9.16406H14.9984C15.4567 9.16406 15.8317 9.53906 15.8317 9.9974C15.8317 10.4557 15.4567 10.8307 14.9984 10.8307Z" fill="white"/>
</svg>
