<svg width="30" height="30" viewBox="0 0 30 30" fill="none" xmlns="http://www.w3.org/2000/svg">
<circle cx="15.0002" cy="14.7541" r="14.7541" fill="#1677FF"/>
<path d="M18.9347 15.41H15.6561V18.6887C15.6561 19.0493 15.361 19.3444 15.0003 19.3444C14.6397 19.3444 14.3446 19.0493 14.3446 18.6887V15.41H11.0659C10.7052 15.41 10.4102 15.1149 10.4102 14.7542C10.4102 14.3936 10.7052 14.0985 11.0659 14.0985H14.3446V10.8198C14.3446 10.4591 14.6397 10.1641 15.0003 10.1641C15.361 10.1641 15.6561 10.4591 15.6561 10.8198V14.0985H18.9347C19.2954 14.0985 19.5905 14.3936 19.5905 14.7542C19.5905 15.1149 19.2954 15.41 18.9347 15.41Z" fill="white"/>
</svg>
