<svg width="15" height="17" viewBox="0 0 15 17" fill="none" xmlns="http://www.w3.org/2000/svg">
<path d="M13.8281 5.75H1.17188C0.985395 5.75 0.806552 5.67098 0.674691 5.53033C0.542829 5.38968 0.46875 5.19891 0.46875 5C0.46875 4.80109 0.542829 4.61032 0.674691 4.46967C0.806552 4.32902 0.985395 4.25 1.17188 4.25H13.8281C14.0146 4.25 14.1934 4.32902 14.3253 4.46967C14.4572 4.61032 14.5312 4.80109 14.5312 5C14.5312 5.19891 14.4572 5.38968 14.3253 5.53033C14.1934 5.67098 14.0146 5.75 13.8281 5.75ZM11.4844 9.25H3.51562C3.32914 9.25 3.1503 9.17098 3.01844 9.03033C2.88658 8.88968 2.8125 8.69891 2.8125 8.5C2.8125 8.30109 2.88658 8.11032 3.01844 7.96967C3.1503 7.82902 3.32914 7.75 3.51562 7.75H11.4844C11.6709 7.75 11.8497 7.82902 11.9816 7.96967C12.1134 8.11032 12.1875 8.30109 12.1875 8.5C12.1875 8.69891 12.1134 8.88968 11.9816 9.03033C11.8497 9.17098 11.6709 9.25 11.4844 9.25ZM8.67188 12.75H6.32812C6.14164 12.75 5.9628 12.671 5.83094 12.5303C5.69908 12.3897 5.625 12.1989 5.625 12C5.625 11.8011 5.69908 11.6103 5.83094 11.4697C5.9628 11.329 6.14164 11.25 6.32812 11.25H8.67188C8.85836 11.25 9.0372 11.329 9.16906 11.4697C9.30092 11.6103 9.375 11.8011 9.375 12C9.375 12.1989 9.30092 12.3897 9.16906 12.5303C9.0372 12.671 8.85836 12.75 8.67188 12.75Z" fill="black"/>
</svg>
