<svg width="16" height="17" viewBox="0 0 16 17" fill="none" xmlns="http://www.w3.org/2000/svg">
<path d="M11.9347 9.40996H8.65606V12.6887C8.65606 13.0493 8.36098 13.3444 8.00032 13.3444C7.63966 13.3444 7.34458 13.0493 7.34458 12.6887V9.40996H4.06589C3.70524 9.40996 3.41016 9.11488 3.41016 8.75423C3.41016 8.39357 3.70524 8.09849 4.06589 8.09849H7.34458V4.8198C7.34458 4.45914 7.63966 4.16406 8.00032 4.16406C8.36098 4.16406 8.65606 4.45914 8.65606 4.8198V8.09849H11.9347C12.2954 8.09849 12.5905 8.39357 12.5905 8.75423C12.5905 9.11488 12.2954 9.40996 11.9347 9.40996Z" fill="white"/>
</svg>
