<svg width="16" height="16" viewBox="0 0 16 16" fill="none" xmlns="http://www.w3.org/2000/svg">
<path d="M9.10753 10.1675C8.1879 10.8214 7.0562 11.1059 5.9367 10.9646C4.81721 10.8234 3.79163 10.2667 3.06322 9.40492C2.33482 8.54315 1.95675 7.43918 2.00394 6.3118C2.05113 5.18441 2.52014 4.1159 3.31802 3.31802C4.1159 2.52014 5.18441 2.05113 6.3118 2.00394C7.43918 1.95675 8.54315 2.33482 9.40492 3.06322C10.2667 3.79163 10.8234 4.81721 10.9646 5.9367C11.1059 7.0562 10.8214 8.1879 10.1675 9.10753L13.7805 12.7195C13.8542 12.7882 13.9133 12.871 13.9543 12.963C13.9953 13.055 14.0173 13.1543 14.0191 13.255C14.0209 13.3557 14.0024 13.4557 13.9647 13.5491C13.9269 13.6425 13.8708 13.7274 13.7996 13.7986C13.7284 13.8698 13.6435 13.9259 13.5501 13.9637C13.4567 14.0014 13.3567 14.0199 13.256 14.0181C13.1553 14.0163 13.056 13.9943 12.964 13.9533C12.872 13.9123 12.7892 13.8532 12.7205 13.7795L9.10753 10.1675ZM9.50053 6.49953C9.50053 5.70388 9.18446 4.94082 8.62185 4.37821C8.05925 3.8156 7.29618 3.49953 6.50053 3.49953C5.70488 3.49953 4.94182 3.8156 4.37921 4.37821C3.8166 4.94082 3.50053 5.70388 3.50053 6.49953C3.50053 7.29518 3.8166 8.05825 4.37921 8.62085C4.94182 9.18346 5.70488 9.49953 6.50053 9.49953C7.29618 9.49953 8.05925 9.18346 8.62185 8.62085C9.18446 8.05825 9.50053 7.29518 9.50053 6.49953Z" fill="#888EA8"/>
</svg>
