<svg width="24" height="25" viewBox="0 0 24 25" fill="none" xmlns="http://www.w3.org/2000/svg">
<path d="M17 22.6797C15.6167 22.6797 14.4377 22.192 13.463 21.2167C12.4883 20.2414 12.0007 19.0624 12 17.6797C11.9993 16.297 12.487 15.118 13.463 14.1427C14.439 13.1674 15.618 12.6797 17 12.6797C18.382 12.6797 19.5613 13.1674 20.538 14.1427C21.5147 15.118 22.002 16.297 22 17.6797C21.998 19.0624 21.5103 20.2417 20.537 21.2177C19.5637 22.1937 18.3847 22.681 17 22.6797ZM18.675 20.0547L19.375 19.3547L17.5 17.4797V14.6797H16.5V17.8797L18.675 20.0547ZM5 21.6797C4.45 21.6797 3.97933 21.484 3.588 21.0927C3.19667 20.7014 3.00067 20.2304 3 19.6797V5.67969C3 5.12969 3.196 4.65902 3.588 4.26769C3.98 3.87635 4.45067 3.68035 5 3.67969H9.175C9.35833 3.09635 9.71667 2.61735 10.25 2.24269C10.7833 1.86802 11.3667 1.68035 12 1.67969C12.6667 1.67969 13.2627 1.86735 13.788 2.24269C14.3133 2.61802 14.6673 3.09702 14.85 3.67969H19C19.55 3.67969 20.021 3.87569 20.413 4.26769C20.805 4.65969 21.0007 5.13035 21 5.67969V11.9297C20.7 11.713 20.3833 11.5297 20.05 11.3797C19.7167 11.2297 19.3667 11.0964 19 10.9797V5.67969H17V8.67969H7V5.67969H5V19.6797H10.3C10.4167 20.0464 10.55 20.3964 10.7 20.7297C10.85 21.063 11.0333 21.3797 11.25 21.6797H5ZM12 5.67969C12.2833 5.67969 12.521 5.58369 12.713 5.39169C12.905 5.19969 13.0007 4.96235 13 4.67969C12.9993 4.39702 12.9033 4.15969 12.712 3.96769C12.5207 3.77569 12.2833 3.67969 12 3.67969C11.7167 3.67969 11.4793 3.77569 11.288 3.96769C11.0967 4.15969 11.0007 4.39702 11 4.67969C10.9993 4.96235 11.0953 5.20002 11.288 5.39269C11.4807 5.58535 11.718 5.68102 12 5.67969Z" fill="#777777" />
</svg>
