<svg width="24" height="25" viewBox="0 0 24 25" fill="none" xmlns="http://www.w3.org/2000/svg">
<path d="M5 17.6797H9C10.6569 17.6797 12 19.0228 12 20.6797V10.6797C12 7.85126 12 6.43705 11.1213 5.55837C10.2426 4.67969 8.82843 4.67969 6 4.67969H5C4.05719 4.67969 3.58579 4.67969 3.29289 4.97258C3 5.26547 3 5.73688 3 6.67969V15.6797C3 16.6225 3 17.0939 3.29289 17.3868C3.58579 17.6797 4.05719 17.6797 5 17.6797Z" stroke="#777777" stroke-width="2"/>
<path d="M19 17.6797H15C13.3431 17.6797 12 19.0228 12 20.6797V10.6797C12 7.85126 12 6.43705 12.8787 5.55837C13.7574 4.67969 15.1716 4.67969 18 4.67969H19C19.9428 4.67969 20.4142 4.67969 20.7071 4.97258C21 5.26547 21 5.73688 21 6.67969V15.6797C21 16.6225 21 17.0939 20.7071 17.3868C20.4142 17.6797 19.9428 17.6797 19 17.6797Z" stroke="#777777" stroke-width="2"/>
</svg>
