<svg width="24" height="25" viewBox="0 0 24 25" fill="none" xmlns="http://www.w3.org/2000/svg">
<path d="M21 20.6796C21 18.938 19.3304 17.4563 17 16.9072M15 20.6797C15 18.4705 12.3137 16.6797 9 16.6797C5.68629 16.6797 3 18.4705 3 20.6797M15 13.6797C17.2091 13.6797 19 11.8888 19 9.67969C19 7.47055 17.2091 5.67969 15 5.67969M9 13.6797C6.79086 13.6797 5 11.8888 5 9.67969C5 7.47055 6.79086 5.67969 9 5.67969C11.2091 5.67969 13 7.47055 13 9.67969C13 11.8888 11.2091 13.6797 9 13.6797Z" stroke="#777777" stroke-width="2" stroke-linecap="round" stroke-linejoin="round"/>
</svg>
