<svg width="24" height="25" viewBox="0 0 24 25" fill="none" xmlns="http://www.w3.org/2000/svg">
<path d="M4 7.67969C4 5.79407 4 4.85126 4.58579 4.26547C5.17157 3.67969 6.11438 3.67969 8 3.67969H16C17.8856 3.67969 18.8284 3.67969 19.4142 4.26547C20 4.85126 20 5.79407 20 7.67969V15.6797C20 18.5081 20 19.9223 19.1213 20.801C18.2426 21.6797 16.8284 21.6797 14 21.6797H10C7.17157 21.6797 5.75736 21.6797 4.87868 20.801C4 19.9223 4 18.5081 4 15.6797V7.67969Z" stroke="#777777" stroke-width="2"/>
<path d="M15 18.6797L15 21.6797M9 18.6797L9 21.6797" stroke="#777777" stroke-width="2" stroke-linecap="round"/>
<path d="M9 8.67969L15 8.67969" stroke="#777777" stroke-width="2" stroke-linecap="round"/>
<path d="M9 12.6797L15 12.6797" stroke="#777777" stroke-width="2" stroke-linecap="round"/>
</svg>
