<svg width="24" height="25" viewBox="0 0 24 25" fill="none" xmlns="http://www.w3.org/2000/svg">
<rect x="3" y="6.67969" width="18" height="15" rx="2" stroke="#777777" stroke-width="2"/>
<path d="M3 10.6797C3 8.79407 3 7.85126 3.58579 7.26547C4.17157 6.67969 5.11438 6.67969 7 6.67969H17C18.8856 6.67969 19.8284 6.67969 20.4142 7.26547C21 7.85126 21 8.79407 21 10.6797H3Z" fill="#777777"/>
<path d="M7 3.67969L7 6.67969" stroke="#777777" stroke-width="2" stroke-linecap="round"/>
<path d="M17 3.67969L17 6.67969" stroke="#777777" stroke-width="2" stroke-linecap="round"/>
<rect x="7" y="12.6797" width="4" height="2" rx="0.5" fill="#777777"/>
<rect x="7" y="16.6797" width="4" height="2" rx="0.5" fill="#777777"/>
<rect x="13" y="12.6797" width="4" height="2" rx="0.5" fill="#777777"/>
<rect x="13" y="16.6797" width="4" height="2" rx="0.5" fill="#777777"/>
</svg>
