<svg width="25" height="25" viewBox="0 0 25 25" fill="none" xmlns="http://www.w3.org/2000/svg">
<path d="M5.13184 13.4373C5.13184 12.0795 5.13184 11.4006 5.41356 10.8039C5.69528 10.2072 6.22436 9.76536 7.28252 8.88174L8.30897 8.0246C10.2216 6.42747 11.1779 5.62891 12.317 5.62891C13.4562 5.62891 14.4125 6.42747 16.3251 8.0246L17.3515 8.88174C18.4097 9.76536 18.9388 10.2072 19.2205 10.8039C19.5022 11.4006 19.5022 12.0795 19.5022 13.4373V17.6777C19.5022 19.5633 19.5022 20.5061 18.9009 21.0919C18.2996 21.6777 17.3319 21.6777 15.3964 21.6777H9.23766C7.30215 21.6777 6.3344 21.6777 5.73312 21.0919C5.13184 20.5061 5.13184 19.5633 5.13184 17.6777V13.4373Z" stroke="#727272" stroke-width="2"/>
<path d="M14.8833 21.6777V16.6777C14.8833 16.1254 14.4355 15.6777 13.8833 15.6777H10.751C10.1987 15.6777 9.75098 16.1254 9.75098 16.6777V21.6777" stroke="#727272" stroke-width="2" stroke-linecap="round" stroke-linejoin="round"/>
</svg>
