<svg width="24" height="25" viewBox="0 0 24 25" fill="none" xmlns="http://www.w3.org/2000/svg">
<path d="M20 12.6797V17.6797C20 19.5653 20 20.5081 19.4142 21.0939C18.8284 21.6797 17.8856 21.6797 16 21.6797H6.5C5.11929 21.6797 4 20.5604 4 19.1797V19.1797C4 17.799 5.11929 16.6797 6.5 16.6797H16C17.8856 16.6797 18.8284 16.6797 19.4142 16.0939C20 15.5081 20 14.5653 20 12.6797V7.67969C20 5.79407 20 4.85126 19.4142 4.26547C18.8284 3.67969 17.8856 3.67969 16 3.67969H8C6.11438 3.67969 5.17157 3.67969 4.58579 4.26547C4 4.85126 4 5.79407 4 7.67969V19.1797" stroke="#777777" stroke-width="2"/>
<path d="M9 8.67969L15 8.67969" stroke="#777777" stroke-width="2" stroke-linecap="round"/>
</svg>
