<svg width="24" height="25" viewBox="0 0 24 25" fill="none" xmlns="http://www.w3.org/2000/svg">
<path d="M18 3.6797V3.6797C19.6569 3.6797 21 5.02284 21 6.67969L21 8.82255C21 9.15667 21 9.32373 20.9234 9.4457C20.8834 9.50931 20.8296 9.56309 20.766 9.60305C20.644 9.67969 20.477 9.67969 20.1429 9.67969L15 9.67969M18 3.6797V3.6797C16.3431 3.6797 15 5.02284 15 6.67969L15 9.67969M18 3.6797L7 3.6797C5.11438 3.6797 4.17157 3.6797 3.58579 4.26548C3 4.85127 3 5.79408 3 7.6797L3 21.6797L6 20.6797L9 21.6797L12 20.6797L15 21.6797L15 9.67969" stroke="#777777" stroke-width="2"/>
<path d="M7 7.67969L11 7.67969" stroke="#777777" stroke-width="2" stroke-linecap="round"/>
<path d="M8 11.6797H7" stroke="#777777" stroke-width="2" stroke-linecap="round"/>
<path d="M7 15.6797L10 15.6797" stroke="#777777" stroke-width="2" stroke-linecap="round"/>
</svg>
