<svg width="14" height="14" viewBox="0 0 14 14" fill="none" xmlns="http://www.w3.org/2000/svg">
<path d="M12.25 0.25H1.75C0.925 0.25 0.25 0.925 0.25 1.75V12.25C0.25 13.075 0.925 13.75 1.75 13.75H12.25C13.075 13.75 13.75 13.075 13.75 12.25V1.75C13.75 0.925 13.075 0.25 12.25 0.25ZM3.25 3.25H4.75V4.75H3.25V3.25ZM3.25 6.25H4.75V7.75H3.25V6.25ZM3.25 9.25H4.75V10.75H3.25V9.25ZM10.75 10.75H6.25V9.25H10.75V10.75ZM10.75 7.75H6.25V6.25H10.75V7.75ZM10.75 4.75H6.25V3.25H10.75V4.75Z" fill="#8D4DCD"/>
</svg>
