<svg width="18" height="22" viewBox="0 0 18 22" fill="none" xmlns="http://www.w3.org/2000/svg">
<path fill-rule="evenodd" clip-rule="evenodd" d="M2.75661 6.34102C2.82937 5.182 3.34109 4.09427 4.18761 3.29927C5.03414 2.50427 6.15181 2.06177 7.31311 2.06185H7.91653V1.24935C7.91653 0.962031 8.03067 0.686481 8.23383 0.483317C8.437 0.280152 8.71255 0.166016 8.99986 0.166016C9.28718 0.166016 9.56273 0.280152 9.7659 0.483317C9.96906 0.686481 10.0832 0.962031 10.0832 1.24935V2.06185H10.6866C11.8479 2.06177 12.9656 2.50427 13.8121 3.29927C14.6586 4.09427 15.1704 5.182 15.2431 6.34102L15.4825 10.1695C15.5738 11.6293 16.0639 13.036 16.8995 14.2363C17.0722 14.4845 17.1777 14.7731 17.2057 15.0741C17.2338 15.3751 17.1835 15.6782 17.0597 15.954C16.936 16.2298 16.7429 16.4689 16.4994 16.648C16.2558 16.8271 15.9701 16.9401 15.6699 16.9761L11.979 17.4181V18.5827C11.979 19.3728 11.6652 20.1306 11.1065 20.6893C10.5478 21.248 9.78999 21.5618 8.99986 21.5618C8.20974 21.5618 7.45198 21.248 6.89328 20.6893C6.33457 20.1306 6.0207 19.3728 6.0207 18.5827V17.4181L2.32978 16.975C2.0298 16.939 1.74425 16.8259 1.50086 16.6469C1.25748 16.4679 1.06454 16.2289 0.940787 15.9533C0.817035 15.6776 0.766679 15.3747 0.794612 15.0738C0.822544 14.773 0.927816 14.4845 1.1002 14.2363C1.93577 13.0359 2.4259 11.6293 2.5172 10.1695L2.75661 6.34102ZM7.31311 3.68685C6.56515 3.68676 5.84527 3.97173 5.30004 4.48376C4.75481 4.99578 4.42522 5.69636 4.37836 6.44285L4.14003 10.2713C4.0299 12.0274 3.44011 13.7196 2.43486 15.1637C2.42237 15.1816 2.41473 15.2025 2.41269 15.2243C2.41065 15.246 2.41428 15.268 2.42322 15.2879C2.43216 15.3079 2.44612 15.3252 2.46372 15.3382C2.48133 15.3511 2.50199 15.3593 2.5237 15.3619L6.57211 15.8483C8.1852 16.0412 9.81453 16.0412 11.4276 15.8483L15.476 15.3619C15.4977 15.3593 15.5184 15.3511 15.536 15.3382C15.5536 15.3252 15.5676 15.3079 15.5765 15.2879C15.5854 15.268 15.5891 15.246 15.587 15.2243C15.585 15.2025 15.5774 15.1816 15.5649 15.1637C14.56 13.7195 13.9705 12.0273 13.8608 10.2713L13.6214 6.44285C13.5745 5.69636 13.2449 4.99578 12.6997 4.48376C12.1545 3.97173 11.4346 3.68676 10.6866 3.68685H7.31311ZM8.99986 19.9368C8.25236 19.9368 7.6457 19.3302 7.6457 18.5827V17.7702H10.354V18.5827C10.354 19.3302 9.74736 19.9368 8.99986 19.9368Z" fill="#1677FF"/>
</svg>
