<svg width="61" height="61" viewBox="0 0 61 61" fill="none" xmlns="http://www.w3.org/2000/svg">
<path d="M15.8854 7.625C13.6946 7.625 11.5935 8.49529 10.0444 10.0444C8.49529 11.5935 7.625 13.6946 7.625 15.8854V45.1146C7.625 47.3054 8.49529 49.4065 10.0444 50.9556C11.5935 52.5047 13.6946 53.375 15.8854 53.375H30.5559C29.7948 52.1864 29.1892 50.9051 28.7539 49.5625H15.8854C14.7058 49.5625 13.5744 49.0939 12.7403 48.2597C11.9061 47.4256 11.4375 46.2942 11.4375 45.1146V15.8854C11.4375 13.4302 13.4302 11.4375 15.8854 11.4375H45.1146C47.5698 11.4375 49.5625 13.4302 49.5625 15.8854V28.7539C50.9051 29.1892 52.1864 29.7948 53.375 30.5559V15.8854C53.375 13.6946 52.5047 11.5935 50.9556 10.0444C49.4065 8.49529 47.3054 7.625 45.1146 7.625H15.8854ZM44.4792 27.9583C44.8638 27.9583 45.2467 27.971 45.628 27.9965C45.737 27.7079 45.7743 27.3972 45.7368 27.091C45.6993 26.7848 45.588 26.4923 45.4125 26.2386C45.237 25.9849 45.0026 25.7775 44.7294 25.6344C44.4561 25.4912 44.1522 25.4165 43.8438 25.4167H32.4062C31.9007 25.4167 31.4158 25.6175 31.0583 25.975C30.7008 26.3325 30.5 26.8173 30.5 27.3229C30.5 27.8285 30.7008 28.3133 31.0583 28.6708C31.4158 29.0283 31.9007 29.2292 32.4062 29.2292H38.1148C40.1314 28.3889 42.2946 27.957 44.4792 27.9583ZM17.1562 15.25C16.6507 15.25 16.1658 15.4508 15.8083 15.8083C15.4508 16.1658 15.25 16.6507 15.25 17.1562C15.25 17.6618 15.4508 18.1467 15.8083 18.5042C16.1658 18.8617 16.6507 19.0625 17.1562 19.0625H43.8438C44.3493 19.0625 44.8342 18.8617 45.1917 18.5042C45.5492 18.1467 45.75 17.6618 45.75 17.1562C45.75 16.6507 45.5492 16.1658 45.1917 15.8083C44.8342 15.4508 44.3493 15.25 43.8438 15.25H17.1562ZM15.25 27.3229C15.25 26.5719 15.3979 25.8283 15.6853 25.1344C15.9727 24.4406 16.3939 23.8102 16.925 23.2792C17.456 22.7481 18.0864 22.3269 18.7803 22.0395C19.4741 21.7521 20.2178 21.6042 20.9688 21.6042C21.7197 21.6042 22.4634 21.7521 23.1572 22.0395C23.8511 22.3269 24.4815 22.7481 25.0125 23.2792C25.5436 23.8102 25.9648 24.4406 26.2522 25.1344C26.5396 25.8283 26.6875 26.5719 26.6875 27.3229C26.6875 28.8396 26.085 30.2942 25.0125 31.3667C23.94 32.4392 22.4855 33.0417 20.9688 33.0417C19.452 33.0417 17.9975 32.4392 16.925 31.3667C15.8525 30.2942 15.25 28.8396 15.25 27.3229ZM20.9688 25.4167C20.4632 25.4167 19.9783 25.6175 19.6208 25.975C19.2633 26.3325 19.0625 26.8173 19.0625 27.3229C19.0625 27.8285 19.2633 28.3133 19.6208 28.6708C19.9783 29.0283 20.4632 29.2292 20.9688 29.2292C21.4743 29.2292 21.9592 29.0283 22.3167 28.6708C22.6742 28.3133 22.875 27.8285 22.875 27.3229C22.875 26.8173 22.6742 26.3325 22.3167 25.975C21.9592 25.6175 21.4743 25.4167 20.9688 25.4167ZM20.9688 35.5833C19.452 35.5833 17.9975 36.1858 16.925 37.2583C15.8525 38.3308 15.25 39.7854 15.25 41.3021C15.25 42.8188 15.8525 44.2734 16.925 45.3459C17.9975 46.4183 19.452 47.0208 20.9688 47.0208C22.4855 47.0208 23.94 46.4183 25.0125 45.3459C26.085 44.2734 26.6875 42.8188 26.6875 41.3021C26.6875 39.7854 26.085 38.3308 25.0125 37.2583C23.94 36.1858 22.4855 35.5833 20.9688 35.5833ZM19.0625 41.3021C19.0625 40.7965 19.2633 40.3117 19.6208 39.9542C19.9783 39.5967 20.4632 39.3958 20.9688 39.3958C21.4743 39.3958 21.9592 39.5967 22.3167 39.9542C22.6742 40.3117 22.875 40.7965 22.875 41.3021C22.875 41.8077 22.6742 42.2925 22.3167 42.65C21.9592 43.0075 21.4743 43.2083 20.9688 43.2083C20.4632 43.2083 19.9783 43.0075 19.6208 42.65C19.2633 42.2925 19.0625 41.8077 19.0625 41.3021ZM58.4583 44.4792C58.4583 40.7717 56.9855 37.216 54.3639 34.5944C51.7423 31.9728 48.1867 30.5 44.4792 30.5C40.7717 30.5 37.216 31.9728 34.5944 34.5944C31.9728 37.216 30.5 40.7717 30.5 44.4792C30.5 48.1867 31.9728 51.7423 34.5944 54.3639C37.216 56.9855 40.7717 58.4583 44.4792 58.4583C48.1867 58.4583 51.7423 56.9855 54.3639 54.3639C56.9855 51.7423 58.4583 48.1867 58.4583 44.4792ZM45.75 45.75L45.7525 52.1118C45.7525 52.4488 45.6187 52.7721 45.3803 53.0104C45.142 53.2487 44.8188 53.3826 44.4817 53.3826C44.1447 53.3826 43.8214 53.2487 43.5831 53.0104C43.3448 52.7721 43.2109 52.4488 43.2109 52.1118V45.75H36.844C36.507 45.75 36.1837 45.6161 35.9454 45.3778C35.7071 45.1395 35.5732 44.8162 35.5732 44.4792C35.5732 44.1421 35.7071 43.8189 35.9454 43.5806C36.1837 43.3422 36.507 43.2083 36.844 43.2083H43.2083V36.8542C43.2083 36.5171 43.3422 36.1939 43.5806 35.9556C43.8189 35.7172 44.1421 35.5833 44.4792 35.5833C44.8162 35.5833 45.1395 35.7172 45.3778 35.9556C45.6161 36.1939 45.75 36.5171 45.75 36.8542V43.2083H52.0965C52.4336 43.2083 52.7568 43.3422 52.9952 43.5806C53.2335 43.8189 53.3674 44.1421 53.3674 44.4792C53.3674 44.8162 53.2335 45.1395 52.9952 45.3778C52.7568 45.6161 52.4336 45.75 52.0965 45.75H45.75Z" fill="#6B7582"/>
</svg>
