<svg width="20" height="20" viewBox="0 0 20 20" fill="none" xmlns="http://www.w3.org/2000/svg">
<path d="M3.4375 17.5C2.85734 17.5 2.30094 17.2695 1.8907 16.8593C1.48047 16.4491 1.25 15.8927 1.25 15.3125V12.1875C1.25 11.9389 1.34877 11.7004 1.52459 11.5246C1.7004 11.3488 1.93886 11.25 2.1875 11.25C2.43614 11.25 2.6746 11.3488 2.85041 11.5246C3.02623 11.7004 3.125 11.9389 3.125 12.1875V15.3125C3.125 15.485 3.265 15.625 3.4375 15.625H16.5625C16.6454 15.625 16.7249 15.5921 16.7835 15.5335C16.8421 15.4749 16.875 15.3954 16.875 15.3125V12.1875C16.875 11.9389 16.9738 11.7004 17.1496 11.5246C17.3254 11.3488 17.5639 11.25 17.8125 11.25C18.0611 11.25 18.2996 11.3488 18.4754 11.5246C18.6512 11.7004 18.75 11.9389 18.75 12.1875V15.3125C18.75 15.8927 18.5195 16.4491 18.1093 16.8593C17.6991 17.2695 17.1427 17.5 16.5625 17.5H3.4375Z" fill="#6B7582"/>
<path d="M9.06289 9.61125V2.5C9.06289 2.25136 9.16166 2.0129 9.33748 1.83709C9.5133 1.66127 9.75175 1.5625 10.0004 1.5625C10.249 1.5625 10.4875 1.66127 10.6633 1.83709C10.8391 2.0129 10.9379 2.25136 10.9379 2.5V9.61125L13.4004 7.15C13.4874 7.063 13.5907 6.99399 13.7044 6.9469C13.818 6.89982 13.9399 6.87558 14.0629 6.87558C14.1859 6.87558 14.3078 6.89982 14.4214 6.9469C14.5351 6.99399 14.6384 7.063 14.7254 7.15C14.8124 7.237 14.8814 7.34029 14.9285 7.45396C14.9756 7.56763 14.9998 7.68946 14.9998 7.8125C14.9998 7.93554 14.9756 8.05737 14.9285 8.17104C14.8814 8.28471 14.8124 8.388 14.7254 8.475L10.6629 12.5375C10.4871 12.7131 10.2488 12.8117 10.0004 12.8117C9.75195 12.8117 9.51367 12.7131 9.33789 12.5375L5.27539 8.475C5.18839 8.388 5.11938 8.28471 5.0723 8.17104C5.02521 8.05737 5.00098 7.93554 5.00098 7.8125C5.00098 7.68946 5.02521 7.56763 5.0723 7.45396C5.11938 7.34029 5.18839 7.237 5.27539 7.15C5.36239 7.063 5.46568 6.99399 5.57935 6.9469C5.69302 6.89982 5.81486 6.87558 5.93789 6.87558C6.06093 6.87558 6.18276 6.89982 6.29644 6.9469C6.41011 6.99399 6.51339 7.063 6.60039 7.15L9.06289 9.61125Z" fill="#6B7582"/>
</svg>
