<svg width="42" height="42" viewBox="0 0 42 42" fill="none" xmlns="http://www.w3.org/2000/svg">
<g clip-path="url(#clip0_731_20558)">
<path d="M34.7812 3.28125H7.21875C5.05312 3.28125 3.28125 5.05312 3.28125 7.21875V34.7812C3.28125 36.9469 5.05312 38.7188 7.21875 38.7188H34.7812C36.9469 38.7188 38.7188 36.9469 38.7188 34.7812V7.21875C38.7188 5.05312 36.9469 3.28125 34.7812 3.28125ZM11.1562 11.1562H15.0938V15.0938H11.1562V11.1562ZM11.1562 19.0312H15.0938V22.9688H11.1562V19.0312ZM11.1562 26.9062H15.0938V30.8438H11.1562V26.9062ZM30.8438 30.8438H19.0312V26.9062H30.8438V30.8438ZM30.8438 22.9688H19.0312V19.0312H30.8438V22.9688ZM30.8438 15.0938H19.0312V11.1562H30.8438V15.0938Z" fill="#8D4DCD"/>
</g>
<defs>
<clipPath id="clip0_731_20558">
<rect width="42" height="42" fill="white"/>
</clipPath>
</defs>
</svg>
