<svg width="14" height="14" viewBox="0 0 14 14" fill="none" xmlns="http://www.w3.org/2000/svg">
<path d="M12.9307 0.074375C12.9904 0.114308 13.0394 0.168323 13.0733 0.231653C13.1072 0.294982 13.1249 0.365678 13.125 0.4375V7C13.125 7.08737 13.0988 7.17274 13.0498 7.2451C13.0009 7.31746 12.9314 7.3735 12.8503 7.406L12.8476 7.40688L12.8424 7.4095L12.8223 7.41738C12.7072 7.46317 12.5914 7.50693 12.4749 7.54862C12.2439 7.63175 11.9228 7.74375 11.5588 7.85488C10.8448 8.07538 9.91463 8.3125 9.1875 8.3125C8.44637 8.3125 7.833 8.0675 7.29925 7.85313L7.27475 7.84438C6.72 7.62125 6.2475 7.4375 5.6875 7.4375C5.075 7.4375 4.25425 7.63875 3.55513 7.85488C3.24215 7.9526 2.93199 8.0591 2.625 8.17425V13.5625C2.625 13.6785 2.57891 13.7898 2.49686 13.8719C2.41481 13.9539 2.30353 14 2.1875 14C2.07147 14 1.96019 13.9539 1.87814 13.8719C1.79609 13.7898 1.75 13.6785 1.75 13.5625V0.4375C1.75 0.321468 1.79609 0.210188 1.87814 0.128141C1.96019 0.0460936 2.07147 0 2.1875 0C2.30353 0 2.41481 0.0460936 2.49686 0.128141C2.57891 0.210188 2.625 0.321468 2.625 0.4375V0.68425C2.82275 0.615125 3.059 0.5355 3.31625 0.45675C4.03025 0.238 4.96125 0 5.6875 0C6.4225 0 7.021 0.242375 7.54338 0.454125L7.581 0.469875C8.12525 0.6895 8.5995 0.875 9.1875 0.875C9.8 0.875 10.6208 0.67375 11.3199 0.457625C11.7182 0.332912 12.1119 0.19399 12.5002 0.041125L12.5169 0.035L12.5204 0.03325H12.5213" fill="#F24E1E"/>
</svg>
