<svg width="16" height="16" viewBox="0 0 16 16" fill="none" xmlns="http://www.w3.org/2000/svg">
<g clip-path="url(#clip0_691_18410)">
<path d="M7.99968 14.6673C7.07745 14.6673 6.21079 14.4922 5.39968 14.142C4.58856 13.7918 3.88301 13.3169 3.28301 12.7173C2.68301 12.1178 2.20812 11.4122 1.85834 10.6007C1.50856 9.7891 1.33345 8.92243 1.33301 8.00065C1.33256 7.07887 1.50768 6.21221 1.85834 5.40065C2.20901 4.5891 2.6839 3.88354 3.28301 3.28398C3.88212 2.68443 4.58768 2.20954 5.39968 1.85932C6.21168 1.5091 7.07834 1.33398 7.99968 1.33398C8.7219 1.33398 9.40523 1.43954 10.0497 1.65065C10.6941 1.86176 11.2886 2.15621 11.833 2.53398L10.8663 3.51732C10.4441 3.25065 9.99412 3.04243 9.51634 2.89265C9.03856 2.74287 8.53301 2.66776 7.99968 2.66732C6.5219 2.66732 5.26345 3.18687 4.22434 4.22598C3.18523 5.2651 2.6659 6.52332 2.66634 8.00065C2.66679 9.47798 3.18634 10.7364 4.22501 11.776C5.26368 12.8155 6.5219 13.3349 7.99968 13.334C8.35523 13.334 8.69968 13.3007 9.03301 13.234C9.36634 13.1673 9.68856 13.0729 9.99968 12.9507L10.9997 13.9673C10.5441 14.1895 10.0663 14.3618 9.56634 14.484C9.06634 14.6062 8.54412 14.6673 7.99968 14.6673ZM12.6663 13.334V11.334H10.6663V10.0007H12.6663V8.00065H13.9997V10.0007H15.9997V11.334H13.9997V13.334H12.6663ZM7.06634 11.0673L4.23301 8.23398L5.16634 7.30065L7.06634 9.20065L13.733 2.51732L14.6663 3.45065L7.06634 11.0673Z" fill="white"/>
</g>
<defs>
<clipPath id="clip0_691_18410">
<rect width="16" height="16" fill="white"/>
</clipPath>
</defs>
</svg>
