<svg width="20" height="20" viewBox="0 0 20 20" fill="none" xmlns="http://www.w3.org/2000/svg">
<path fill-rule="evenodd" clip-rule="evenodd" d="M2.04775 1.96669C2.16903 1.86134 2.31882 1.7943 2.47819 1.77406C2.63756 1.75381 2.79935 1.78126 2.94312 1.85295L17.5681 9.16544C17.7033 9.23283 17.8171 9.33658 17.8966 9.46503C17.9761 9.59349 18.0182 9.74156 18.0182 9.89263C18.0182 10.0437 17.9761 10.1918 17.8966 10.3202C17.8171 10.4487 17.7033 10.5524 17.5681 10.6198L2.94312 17.9323C2.79936 18.0043 2.63749 18.0319 2.478 18.0118C2.31851 17.9917 2.16856 17.9248 2.04713 17.8195C1.9257 17.7141 1.83825 17.5751 1.79584 17.4201C1.75342 17.265 1.75796 17.1009 1.80887 16.9484L3.8905 10.7051H8.26743C8.48292 10.7051 8.68959 10.6195 8.84196 10.4672C8.99433 10.3148 9.07993 10.1081 9.07993 9.89263C9.07993 9.67714 8.99433 9.47048 8.84196 9.31811C8.68959 9.16574 8.48292 9.08013 8.26743 9.08013H3.8905L1.80806 2.83688C1.75741 2.68447 1.75307 2.52046 1.79559 2.36558C1.8381 2.2107 1.92638 2.07189 2.04775 1.96669Z" fill="black"/>
</svg>
