<svg width="53" height="53" viewBox="0 0 53 53" fill="none" xmlns="http://www.w3.org/2000/svg">
<path fill-rule="evenodd" clip-rule="evenodd" d="M39.6038 19.8764H39.7694C41.0724 19.8766 42.3625 20.1339 43.5658 20.6335C44.7692 21.1332 45.8621 21.8653 46.782 22.7881C48.6426 24.6529 49.6875 27.1796 49.6875 29.8139C49.6875 32.4481 48.6426 34.9749 46.782 36.8397C45.8621 37.7624 44.7692 38.4946 43.5658 38.9942C42.3625 39.4939 41.0724 39.7512 39.7694 39.7514H33.161V36.4389H39.7694C41.4753 36.3626 43.0859 35.6313 44.266 34.3972C45.4461 33.1631 46.1047 31.5214 46.1047 29.8139C46.1047 28.1064 45.4461 26.4647 44.266 25.2306C43.0859 23.9965 41.4753 23.2652 39.7694 23.1889H36.7418L36.3344 20.3501C36.0858 18.5715 35.2635 16.9227 33.9925 15.654C32.7214 14.3853 31.071 13.5662 29.292 13.3209C27.5119 13.0778 25.7012 13.4254 24.1377 14.3103C22.5742 15.1953 21.3442 16.5688 20.6364 18.2201L19.5334 20.7443L16.8536 20.1182C16.241 19.9663 15.6131 19.8851 14.982 19.8764C12.7891 19.8764 10.6857 20.7476 9.13876 22.3011C7.98591 23.4603 7.20149 24.9345 6.88412 26.5383C6.56675 28.142 6.73061 29.8038 7.35508 31.3148C7.97955 32.8257 9.03676 34.1182 10.3938 35.03C11.7509 35.9417 13.3471 36.4319 14.982 36.4389H23.2434V39.7514H14.982C13.3413 39.7661 11.7163 39.4311 10.2152 38.7685C8.71412 38.1059 7.37149 37.1311 6.27676 35.9089C4.62153 34.0656 3.5999 31.7407 3.36148 29.2748C3.12305 26.8089 3.68034 24.3314 4.95176 22.2051C5.79385 20.7963 6.92568 19.5826 8.27227 18.6444C9.61885 17.7061 11.1494 17.0647 12.7626 16.7626C14.3725 16.4645 16.0321 16.5076 17.6254 16.8984C18.6294 14.5996 20.3546 12.6902 22.5402 11.4591C24.7258 10.2279 27.2529 9.74198 29.7392 10.0747C32.2266 10.4113 34.536 11.5508 36.3166 13.3199C38.0971 15.0891 39.2513 17.3912 39.6038 19.8764ZM34.0951 32.6394L29.7425 28.2901V46.2969H26.4499V28.4094L22.2165 32.6428L19.8746 30.2975L26.9832 23.1889H29.3284L36.4371 30.2975L34.0951 32.6394Z" fill="black"/>
</svg>
