<svg width="15" height="16" viewBox="0 0 15 16" fill="none" xmlns="http://www.w3.org/2000/svg">
<path d="M0.0722656 2.37542C0.0722656 1.82131 0.292386 1.28989 0.684203 0.89807C1.07602 0.506253 1.60744 0.286133 2.16155 0.286133H10.8401C11.3942 0.286133 11.9257 0.506253 12.3175 0.89807C12.7093 1.28989 12.9294 1.82131 12.9294 2.37542V10.1726C12.8523 10.2241 12.7783 10.2845 12.7102 10.3526L11.9651 11.0977V2.37542C11.9651 2.07705 11.8466 1.7909 11.6356 1.57992C11.4246 1.36895 11.1385 1.25042 10.8401 1.25042H2.16155C1.86318 1.25042 1.57703 1.36895 1.36606 1.57992C1.15508 1.7909 1.03655 2.07705 1.03655 2.37542V13.6254C1.03655 14.2464 1.54055 14.7504 2.16155 14.7504H7.34812L8.31241 15.7147H2.16155C1.60744 15.7147 1.07602 15.4946 0.684203 15.1028C0.292386 14.711 0.0722656 14.1795 0.0722656 13.6254V2.37542ZM4.25084 4.62542C4.25084 4.83854 4.16618 5.04293 4.01548 5.19363C3.86478 5.34433 3.66039 5.42899 3.44727 5.42899C3.23415 5.42899 3.02975 5.34433 2.87905 5.19363C2.72836 5.04293 2.64369 4.83854 2.64369 4.62542C2.64369 4.4123 2.72836 4.20791 2.87905 4.05721C3.02975 3.90651 3.23415 3.82185 3.44727 3.82185C3.66039 3.82185 3.86478 3.90651 4.01548 4.05721C4.16618 4.20791 4.25084 4.4123 4.25084 4.62542ZM3.44727 8.80399C3.66039 8.80399 3.86478 8.71933 4.01548 8.56863C4.16618 8.41793 4.25084 8.21354 4.25084 8.00042C4.25084 7.7873 4.16618 7.58291 4.01548 7.43221C3.86478 7.28151 3.66039 7.19685 3.44727 7.19685C3.23415 7.19685 3.02975 7.28151 2.87905 7.43221C2.72836 7.58291 2.64369 7.7873 2.64369 8.00042C2.64369 8.21354 2.72836 8.41793 2.87905 8.56863C3.02975 8.71933 3.23415 8.80399 3.44727 8.80399ZM3.44727 12.179C3.66039 12.179 3.86478 12.0943 4.01548 11.9436C4.16618 11.7929 4.25084 11.5885 4.25084 11.3754C4.25084 11.1623 4.16618 10.9579 4.01548 10.8072C3.86478 10.6565 3.66039 10.5718 3.44727 10.5718C3.23415 10.5718 3.02975 10.6565 2.87905 10.8072C2.72836 10.9579 2.64369 11.1623 2.64369 11.3754C2.64369 11.5885 2.72836 11.7929 2.87905 11.9436C3.02975 12.0943 3.23415 12.179 3.44727 12.179ZM5.69727 4.14328C5.56939 4.14328 5.44676 4.19407 5.35634 4.28449C5.26592 4.37491 5.21512 4.49755 5.21512 4.62542C5.21512 4.75329 5.26592 4.87593 5.35634 4.96635C5.44676 5.05676 5.56939 5.10756 5.69727 5.10756H9.87584C10.0037 5.10756 10.1263 5.05676 10.2168 4.96635C10.3072 4.87593 10.358 4.75329 10.358 4.62542C10.358 4.49755 10.3072 4.37491 10.2168 4.28449C10.1263 4.19407 10.0037 4.14328 9.87584 4.14328H5.69727ZM5.21512 8.00042C5.21512 7.87255 5.26592 7.74991 5.35634 7.65949C5.44676 7.56907 5.56939 7.51828 5.69727 7.51828H9.87584C10.0037 7.51828 10.1263 7.56907 10.2168 7.65949C10.3072 7.74991 10.358 7.87255 10.358 8.00042C10.358 8.12829 10.3072 8.25093 10.2168 8.34135C10.1263 8.43177 10.0037 8.48256 9.87584 8.48256H5.69727C5.56939 8.48256 5.44676 8.43177 5.35634 8.34135C5.26592 8.25093 5.21512 8.12829 5.21512 8.00042ZM5.69727 10.8933C5.56939 10.8933 5.44676 10.9441 5.35634 11.0345C5.26592 11.1249 5.21512 11.2475 5.21512 11.3754C5.21512 11.5033 5.26592 11.6259 5.35634 11.7163C5.44676 11.8068 5.56939 11.8576 5.69727 11.8576H9.87584C10.0037 11.8576 10.1263 11.8068 10.2168 11.7163C10.3072 11.6259 10.358 11.5033 10.358 11.3754C10.358 11.2475 10.3072 11.1249 10.2168 11.0345C10.1263 10.9441 10.0037 10.8933 9.87584 10.8933H5.69727ZM14.0737 11.7161L10.2166 15.5733C10.1262 15.6636 10.0036 15.7143 9.87584 15.7143C9.74807 15.7143 9.62552 15.6636 9.53512 15.5733L7.60784 13.646C7.52267 13.5546 7.47631 13.4337 7.47851 13.3088C7.48071 13.1839 7.53131 13.0647 7.61965 12.9764C7.70799 12.888 7.82716 12.8374 7.95207 12.8352C8.07698 12.833 8.19787 12.8794 8.28927 12.9646L9.87584 14.5505L13.3923 11.0341C13.4368 10.988 13.49 10.9513 13.5488 10.9261C13.6077 10.9008 13.6709 10.8876 13.7349 10.8871C13.799 10.8865 13.8624 10.8988 13.9217 10.923C13.9809 10.9473 14.0347 10.9831 14.08 11.0284C14.1252 11.0737 14.161 11.1276 14.1852 11.1868C14.2094 11.2461 14.2216 11.3096 14.221 11.3736C14.2204 11.4376 14.2071 11.5009 14.1818 11.5597C14.1565 11.6185 14.1198 11.6717 14.0737 11.7161Z" fill="#0087FF"/>
</svg>
