<svg width="25" height="29" viewBox="0 0 25 29" fill="none" xmlns="http://www.w3.org/2000/svg">
<path d="M6.75196 11.9709C7.0339 9.14905 9.40838 7 12.2443 7C15.0803 7 17.4547 9.14906 17.7367 11.9709L18.0236 14.8426C18.041 15.0169 18.0497 15.1041 18.0602 15.1899C18.2042 16.3722 18.6103 17.5075 19.2491 18.5128C19.2954 18.5858 19.344 18.6587 19.4411 18.8045L20.3017 20.0965C21.0878 21.2766 21.4808 21.8667 21.3078 22.342C21.2752 22.4315 21.2301 22.5158 21.1737 22.5924C20.874 23 20.165 23 18.7471 23H5.74157C4.32363 23 3.61466 23 3.31495 22.5924C3.25857 22.5158 3.21342 22.4315 3.18087 22.342C3.00783 21.8667 3.40086 21.2766 4.18693 20.0965L5.04753 18.8045C5.14466 18.6587 5.19322 18.5858 5.23957 18.5128C5.87829 17.5075 6.28447 16.3722 6.42846 15.1899C6.43891 15.1041 6.44762 15.0169 6.46504 14.8426L6.75196 11.9709Z" fill="#7C7C7C"/>
<path d="M10.3147 25.6294C10.4285 25.7357 10.6794 25.8297 11.0284 25.8967C11.3774 25.9637 11.805 26 12.2449 26C12.6848 26 13.1124 25.9637 13.4614 25.8967C13.8103 25.8297 14.0612 25.7357 14.1751 25.6294" stroke="#7C7C7C" stroke-width="2" stroke-linecap="round"/>
<circle cx="20" cy="4" r="4" fill="#ED1717" fill-opacity="0.8"/>
</svg>
