<svg width="16" height="16" viewBox="0 0 16 16" fill="none" xmlns="http://www.w3.org/2000/svg">
<path d="M4.66761 12.0008C3.8358 12.0008 3.03805 11.6847 2.44987 11.1221C1.86169 10.5595 1.53125 9.79643 1.53125 9.00078C1.53125 8.20513 1.86169 7.44207 2.44987 6.87946C3.03805 6.31685 3.8358 6.00078 4.66761 6.00078C4.86407 5.12557 5.43879 4.35644 6.26534 3.86259C6.6746 3.61806 7.13338 3.44848 7.61546 3.36352C8.09755 3.27857 8.59351 3.2799 9.07502 3.36745C9.55653 3.455 10.0142 3.62704 10.4218 3.87377C10.8294 4.12049 11.1791 4.43706 11.4508 4.8054C11.7225 5.17374 11.9109 5.58663 12.0053 6.02051C12.0997 6.45439 12.0982 6.90075 12.0009 7.33411H12.6676C13.2865 7.33411 13.8799 7.57995 14.3175 8.01753C14.7551 8.45512 15.0009 9.04861 15.0009 9.66745C15.0009 10.2863 14.7551 10.8798 14.3175 11.3174C13.8799 11.7549 13.2865 12.0008 12.6676 12.0008H12.0009" stroke="white" stroke-width="1.33333" stroke-linecap="round" stroke-linejoin="round"/>
<path d="M6 10L8 8M8 8L10 10M8 8V14" stroke="white" stroke-width="1.33333" stroke-linecap="round" stroke-linejoin="round"/>
</svg>
