<svg width="22" height="22" viewBox="0 0 22 22" fill="none" xmlns="http://www.w3.org/2000/svg">
<path d="M17.7001 4.64041H15.5437L14.4967 3.06736C14.4042 2.92866 14.2788 2.81499 14.1317 2.73645C13.9846 2.65791 13.8204 2.61694 13.6537 2.61719H8.25843C8.09169 2.61694 7.92749 2.65791 7.78041 2.73645C7.63334 2.81499 7.50795 2.92866 7.41542 3.06736L6.36756 4.64041H4.21199C3.58596 4.64041 2.98558 4.8891 2.54291 5.33176C2.10025 5.77443 1.85156 6.37481 1.85156 7.00083V16.4425C1.85156 17.0685 2.10025 17.6689 2.54291 18.1116C2.98558 18.5543 3.58596 18.8029 4.21199 18.8029H17.7001C18.0101 18.8029 18.317 18.7419 18.6034 18.6233C18.8898 18.5047 19.15 18.3308 19.3692 18.1116C19.5884 17.8924 19.7622 17.6322 19.8809 17.3458C19.9995 17.0594 20.0605 16.7525 20.0605 16.4425V7.00083C20.0605 6.69086 19.9995 6.38392 19.8809 6.09754C19.7622 5.81116 19.5884 5.55095 19.3692 5.33176C19.15 5.11258 18.8898 4.93871 18.6034 4.82009C18.317 4.70146 18.0101 4.64041 17.7001 4.64041ZM18.0373 16.4425C18.0373 16.532 18.0018 16.6177 17.9386 16.681C17.8753 16.7442 17.7896 16.7797 17.7001 16.7797H4.21199C4.12255 16.7797 4.03679 16.7442 3.97355 16.681C3.91031 16.6177 3.87478 16.532 3.87478 16.4425V7.00083C3.87478 6.9114 3.91031 6.82563 3.97355 6.76239C4.03679 6.69916 4.12255 6.66363 4.21199 6.66363H6.90961C7.07634 6.66388 7.24055 6.62291 7.38763 6.54437C7.5347 6.46583 7.66009 6.35216 7.75262 6.21346L8.79964 4.64041H13.1116L14.1595 6.21346C14.252 6.35216 14.3774 6.46583 14.5245 6.54437C14.6716 6.62291 14.8358 6.66388 15.0025 6.66363H17.7001C17.7896 6.66363 17.8753 6.69916 17.9386 6.76239C18.0018 6.82563 18.0373 6.9114 18.0373 7.00083V16.4425ZM10.9561 7.33804C10.1557 7.33804 9.3734 7.57536 8.70797 8.01998C8.04254 8.46461 7.5239 9.09658 7.21763 9.83597C6.91136 10.5754 6.83123 11.389 6.98736 12.1739C7.1435 12.9588 7.52888 13.6798 8.09479 14.2457C8.66069 14.8116 9.3817 15.197 10.1666 15.3532C10.9516 15.5093 11.7652 15.4292 12.5046 15.1229C13.2439 14.8166 13.8759 14.298 14.3205 13.6326C14.7652 12.9671 15.0025 12.1848 15.0025 11.3845C15.0014 10.3116 14.5747 9.28306 13.8161 8.52444C13.0575 7.76583 12.0289 7.33915 10.9561 7.33804ZM10.9561 13.4077C10.5559 13.4077 10.1647 13.289 9.83201 13.0667C9.4993 12.8444 9.23997 12.5284 9.08684 12.1587C8.93371 11.789 8.89364 11.3822 8.97171 10.9898C9.04977 10.5973 9.24247 10.2368 9.52542 9.95384C9.80837 9.67089 10.1689 9.4782 10.5613 9.40013C10.9538 9.32206 11.3606 9.36213 11.7303 9.51526C12.1 9.6684 12.416 9.92772 12.6383 10.2604C12.8606 10.5932 12.9793 10.9843 12.9793 11.3845C12.9793 11.9211 12.7661 12.4357 12.3867 12.8151C12.0073 13.1945 11.4926 13.4077 10.9561 13.4077Z" fill="#6B7582"/>
</svg>
