<svg width="105" height="49" viewBox="0 0 105 49" fill="none" xmlns="http://www.w3.org/2000/svg">
<path d="M58.7578 9.25774C58.8439 9.17461 58.9127 9.07515 58.96 8.96518C59.0073 8.8552 59.0322 8.7369 59.0333 8.61719C59.0344 8.49748 59.0116 8.37875 58.9664 8.26792C58.9211 8.1571 58.8542 8.0564 58.7696 7.97171C58.685 7.88701 58.5843 7.82002 58.4735 7.77463C58.3628 7.72925 58.2441 7.70638 58.1243 7.70736C58.0046 7.70835 57.8863 7.73316 57.7763 7.78036C57.6663 7.82756 57.5667 7.8962 57.4835 7.98227L53.8699 11.5947L50.2575 7.98227C50.175 7.89369 50.0754 7.82264 49.9648 7.77336C49.8542 7.72409 49.7349 7.69759 49.6138 7.69545C49.4927 7.69332 49.3725 7.71559 49.2602 7.76093C49.148 7.80628 49.046 7.87377 48.9604 7.95939C48.8747 8.045 48.8073 8.14698 48.7619 8.25925C48.7166 8.37151 48.6943 8.49176 48.6964 8.61282C48.6986 8.73388 48.7251 8.85326 48.7743 8.96386C48.8236 9.07445 48.8947 9.17399 48.9832 9.25653L52.5933 12.8701L48.9808 16.4826C48.8216 16.6535 48.7349 16.8795 48.739 17.1131C48.7431 17.3467 48.8377 17.5695 49.0029 17.7347C49.1681 17.8999 49.391 17.9945 49.6246 17.9987C49.8581 18.0028 50.0842 17.9161 50.2551 17.7568L53.8699 14.1444L57.4823 17.758C57.6532 17.9173 57.8793 18.004 58.1129 17.9999C58.3465 17.9957 58.5693 17.9011 58.7345 17.7359C58.8997 17.5707 58.9943 17.3479 58.9984 17.1143C59.0026 16.8807 58.9159 16.6547 58.7566 16.4838L55.1466 12.8701L58.7578 9.25774Z" fill="#6B7582"/>
</svg>
