<svg width="20" height="20" viewBox="0 0 20 20" fill="none" xmlns="http://www.w3.org/2000/svg">
<path d="M0 7.5H20V11.875H0V7.5Z" fill="#E6E7E8"/>
<path d="M16.875 2.8125H3.125C1.05406 2.8125 0 4.35156 0 6.25V7.5H20V6.25C20 4.35156 18.9459 2.8125 16.875 2.8125Z" fill="#FF9933"/>
<path d="M0 13.125C0 15.0234 1.05406 16.5625 3.125 16.5625H16.875C18.9459 16.5625 20 15.0234 20 13.125V11.875H0V13.125Z" fill="#128807"/>
<path fill-rule="evenodd" clip-rule="evenodd" d="M10.0972 7.68359C10.4965 7.68359 10.8868 7.80203 11.2188 8.02393C11.5507 8.24582 11.8094 8.56119 11.962 8.93014C12.1147 9.29909 12.1545 9.70502 12.0763 10.0966C11.9982 10.4881 11.8057 10.8477 11.5232 11.1299C11.2406 11.412 10.8807 11.6039 10.489 11.6814C10.0973 11.759 9.69147 11.7186 9.32276 11.5653C8.95405 11.4121 8.63908 11.1529 8.4177 10.8207C8.19632 10.4884 8.07849 10.0979 8.0791 9.69859C8.08001 9.16392 8.29303 8.65145 8.67139 8.27367C9.04976 7.8959 9.56256 7.68368 10.0972 7.68359ZM8.75192 8.55703C8.7866 8.59641 8.79285 8.63859 8.76973 8.67391C8.75993 8.69017 8.7448 8.70253 8.72692 8.70891C8.71319 8.71401 8.69842 8.71571 8.68389 8.71386C8.66936 8.71201 8.65549 8.70666 8.64348 8.69828C8.58916 8.77606 8.54139 8.85822 8.50067 8.94391C8.54785 8.97484 8.56348 9.01359 8.54785 9.05641C8.53949 9.0782 8.52297 9.09587 8.50179 9.10567C8.48061 9.11548 8.45644 9.11664 8.43442 9.10891C8.41192 9.15391 8.36223 9.34391 8.3616 9.38391C8.3823 9.38786 8.4009 9.39905 8.4141 9.41547C8.42805 9.43177 8.43521 9.4528 8.4341 9.47422C8.42817 9.53297 8.39192 9.55797 8.3366 9.56016C8.32785 9.61672 8.32879 9.80609 8.33754 9.84328C8.39629 9.84953 8.42723 9.87516 8.43223 9.91984C8.4391 9.96797 8.41598 9.99922 8.35973 10.0211C8.3766 10.1139 8.40067 10.2052 8.43223 10.2945C8.45426 10.2879 8.47787 10.2886 8.49942 10.2967C8.52035 10.3058 8.53692 10.3214 8.54567 10.343C8.55348 10.3598 8.55504 10.3773 8.55098 10.3958C8.54806 10.4095 8.542 10.4223 8.53327 10.4333C8.52454 10.4442 8.51337 10.453 8.50067 10.4589C8.54254 10.5458 8.58879 10.6277 8.64348 10.7045C8.69223 10.6805 8.73473 10.6861 8.76348 10.7205C8.77613 10.7346 8.78333 10.7528 8.78379 10.7717C8.78476 10.7857 8.78231 10.7998 8.77665 10.8126C8.77099 10.8255 8.76228 10.8367 8.75129 10.8455C8.81379 10.9186 8.88035 10.9855 8.95285 11.047C8.99379 11.0111 9.03629 11.0055 9.07285 11.0311C9.08942 11.0427 9.10098 11.058 9.10629 11.0767C9.1101 11.09 9.1109 11.104 9.10863 11.1176C9.10636 11.1312 9.10108 11.1441 9.09317 11.1555C9.17223 11.2098 9.25379 11.2567 9.3391 11.2973C9.37223 11.2508 9.41004 11.2352 9.45098 11.2508C9.46881 11.2572 9.48428 11.2688 9.49535 11.2842C9.51098 11.3092 9.51317 11.3367 9.5041 11.3661C9.5941 11.398 9.68473 11.4223 9.77848 11.4389C9.79692 11.3861 9.82879 11.3614 9.87129 11.3645C9.89098 11.3661 9.90879 11.372 9.92442 11.3855C9.94629 11.4055 9.9566 11.4308 9.95473 11.462C10.051 11.4689 10.145 11.4695 10.2385 11.462C10.2454 11.4017 10.2694 11.3714 10.3179 11.3645C10.3363 11.362 10.355 11.3657 10.371 11.3752C10.3827 11.3818 10.3927 11.3909 10.4004 11.402C10.4081 11.413 10.4132 11.4256 10.4154 11.4389C10.5097 11.4214 10.6013 11.3973 10.6897 11.3658C10.6819 11.3067 10.6963 11.2714 10.736 11.253C10.7504 11.2468 10.7662 11.2443 10.7819 11.2458C10.7982 11.247 10.8129 11.252 10.8247 11.2627C10.8363 11.2723 10.846 11.2842 10.8572 11.2964C10.9424 11.2562 11.0241 11.2091 11.1016 11.1555C11.0697 11.1055 11.0885 11.0577 11.1144 11.0364C11.1235 11.0287 11.134 11.0228 11.1453 11.0191C11.1566 11.0155 11.1686 11.0141 11.1805 11.0151C11.1923 11.0162 11.2039 11.0195 11.2144 11.0251C11.225 11.0306 11.2343 11.0382 11.2419 11.0473C11.3141 10.9855 11.3819 10.9183 11.4425 10.8461C11.4072 10.8058 11.4004 10.7633 11.4263 10.7267C11.4368 10.7103 11.4529 10.6983 11.4716 10.693C11.4849 10.6887 11.4991 10.6876 11.5129 10.6898C11.5267 10.6919 11.5398 10.6971 11.5513 10.7052C11.606 10.6264 11.6535 10.5448 11.6941 10.4592C11.6485 10.4286 11.6319 10.3927 11.6457 10.3517C11.6507 10.3335 11.6617 10.3175 11.6769 10.3064C11.6891 10.2979 11.703 10.2924 11.7176 10.2902C11.7323 10.2881 11.7472 10.2893 11.7613 10.2939C11.7816 10.2498 11.8322 10.0642 11.835 10.0192C11.8134 10.0153 11.7939 10.0038 11.78 9.98672C11.7728 9.97828 11.7673 9.96843 11.764 9.95778C11.7607 9.94713 11.7597 9.93591 11.761 9.92484C11.7622 9.90505 11.7704 9.88633 11.7841 9.87203C11.7935 9.86212 11.805 9.85445 11.8178 9.84958C11.8305 9.84471 11.8442 9.84277 11.8579 9.84391C11.8657 9.74938 11.8657 9.65437 11.8579 9.55984C11.7982 9.55391 11.7697 9.53078 11.7619 9.48359C11.7584 9.46575 11.761 9.44724 11.7694 9.43109C11.7759 9.41861 11.7851 9.40779 11.7964 9.39949C11.8078 9.39119 11.8209 9.38564 11.8347 9.38328C11.8183 9.28992 11.794 9.19812 11.7619 9.10891C11.7041 9.11859 11.6685 9.10297 11.6494 9.06297C11.6445 9.05227 11.6417 9.0407 11.6413 9.02893C11.6408 9.01715 11.6428 9.00541 11.6469 8.99438C11.6511 8.98336 11.6574 8.97327 11.6655 8.96471C11.6736 8.95615 11.6833 8.94929 11.6941 8.94453C11.6536 8.85862 11.6058 8.77634 11.5513 8.69859C11.501 8.72266 11.46 8.71703 11.4313 8.68266C11.4185 8.66813 11.4114 8.64949 11.4113 8.63016C11.4107 8.61642 11.4133 8.60274 11.419 8.59021C11.4246 8.57767 11.4331 8.56663 11.4438 8.55797C11.3821 8.48573 11.3149 8.41835 11.2429 8.35641C11.1997 8.39328 11.1579 8.39797 11.1222 8.37234C11.1061 8.36155 11.0942 8.34539 11.0888 8.32672C11.0849 8.31361 11.0841 8.29978 11.0863 8.28629C11.0886 8.2728 11.0939 8.26002 11.1019 8.24891C11.024 8.1946 10.9418 8.14683 10.856 8.10609C10.8238 8.15234 10.7875 8.16766 10.7466 8.15391C10.7285 8.1481 10.7126 8.13673 10.7013 8.12141C10.693 8.10921 10.6878 8.09525 10.6859 8.08064C10.6841 8.06604 10.6857 8.05121 10.6907 8.03734C10.6015 8.0051 10.5097 7.98074 10.4163 7.96453C10.3985 8.01516 10.3663 8.04141 10.3247 8.03891C10.3053 8.03828 10.2866 8.03125 10.2716 8.01891C10.2605 8.00951 10.2518 7.99755 10.2463 7.98405C10.2408 7.97055 10.2386 7.95591 10.24 7.94141C10.1456 7.93338 10.0507 7.93349 9.95629 7.94172C9.94973 7.99797 9.92535 8.03016 9.88379 8.03703C9.86511 8.04102 9.84562 8.0386 9.82848 8.03016C9.8157 8.02383 9.80461 8.01455 9.79613 8.00309C9.78765 7.99162 9.78203 7.97829 9.77973 7.96422C9.68633 7.98121 9.59446 8.00577 9.50504 8.03766C9.51504 8.09297 9.49942 8.12922 9.46129 8.14891C9.44473 8.15734 9.42723 8.16078 9.40785 8.15734C9.39329 8.15536 9.3795 8.14962 9.36783 8.14069C9.35616 8.13176 9.34701 8.11994 9.34129 8.10641C9.28785 8.12641 9.11785 8.22484 9.09535 8.24953C9.11848 8.29578 9.11317 8.33672 9.08129 8.36609C9.07229 8.37405 9.06177 8.38011 9.05038 8.38393C9.03898 8.38774 9.02694 8.38922 9.01496 8.38829C9.00297 8.38736 8.9913 8.38403 8.98064 8.3785C8.96997 8.37297 8.96052 8.36535 8.95285 8.35609C8.88074 8.41774 8.81356 8.48492 8.75192 8.55703Z" fill="#010088"/>
<path fill-rule="evenodd" clip-rule="evenodd" d="M10.9624 11.1962C10.9586 11.1922 10.9549 11.1894 10.9521 11.185C10.7704 10.9073 10.5882 10.6299 10.4055 10.3528C10.4014 10.345 10.3968 10.3372 10.393 10.3284C10.3505 10.2294 10.3089 10.1303 10.2655 10.0316C10.264 10.0265 10.2621 10.0216 10.2596 10.0169C10.2421 10.0234 10.2261 10.0309 10.2074 10.0381L10.2136 10.0541C10.2527 10.15 10.2902 10.2463 10.3299 10.3422C10.3405 10.3678 10.3449 10.3947 10.3505 10.4216C10.3811 10.565 10.4099 10.7091 10.4408 10.8528L10.5464 11.3662C10.547 11.3675 10.5472 11.3688 10.547 11.3701C10.5468 11.3714 10.5463 11.3727 10.5455 11.3738L10.5411 11.3628C10.4555 11.1006 10.3677 10.8388 10.2818 10.5766C10.2646 10.5253 10.2493 10.4747 10.2305 10.4234C10.2218 10.3978 10.2189 10.3716 10.2149 10.345C10.2039 10.2706 10.1946 10.1956 10.1824 10.1213C10.1808 10.1034 10.178 10.0859 10.1755 10.0688C10.1747 10.0616 10.1736 10.0545 10.1721 10.0475C10.1533 10.0494 10.1361 10.0519 10.1174 10.0541C10.1174 10.0616 10.118 10.0694 10.1186 10.0772C10.1296 10.1687 10.1389 10.2606 10.1521 10.3519C10.1589 10.4019 10.1555 10.4509 10.1527 10.5009C10.1508 10.5431 10.148 10.5853 10.1461 10.6278C10.1405 10.7134 10.1361 10.7987 10.1302 10.8841L10.1208 11.0603C10.1155 11.1603 10.1093 11.26 10.1039 11.3594C10.1014 11.3875 10.1008 11.4162 10.098 11.4437L10.0905 11.3491L10.0808 11.1441L10.0696 10.9613C10.0664 10.8988 10.0624 10.8366 10.0589 10.7741C10.0561 10.7331 10.0546 10.6922 10.0521 10.6519C10.0486 10.5872 10.0446 10.5225 10.0414 10.4584C10.0384 10.4243 10.0392 10.3899 10.0439 10.3559C10.0505 10.3097 10.0555 10.2625 10.0611 10.2156C10.0674 10.1694 10.0727 10.1228 10.0783 10.0772C10.0789 10.07 10.0789 10.0625 10.0799 10.0541L10.0252 10.0469C10.0236 10.0594 10.0208 10.0716 10.0186 10.0841C10.0057 10.1795 9.99232 10.2749 9.97863 10.3703C9.97488 10.4075 9.9602 10.4419 9.9477 10.4766C9.85145 10.7697 9.75488 11.0631 9.65738 11.3559C9.6552 11.3613 9.65426 11.3663 9.6502 11.3713C9.6502 11.3675 9.6502 11.3647 9.65176 11.3612C9.69207 11.1637 9.7327 10.9659 9.77457 10.7684C9.80145 10.6372 9.82926 10.5063 9.85582 10.3753L9.86332 10.3537C9.90363 10.2547 9.94238 10.1547 9.98363 10.0556C9.98507 10.0498 9.98717 10.0441 9.98988 10.0388C9.97267 10.0314 9.95538 10.0242 9.93801 10.0172C9.93582 10.0228 9.93238 10.0275 9.93051 10.0331C9.88738 10.1325 9.8452 10.2322 9.80207 10.3316C9.79938 10.339 9.79603 10.3462 9.79207 10.3531C9.60767 10.6325 9.42382 10.9121 9.24051 11.1922C9.23799 11.1964 9.2347 11.2001 9.23082 11.2031C9.23238 11.1981 9.2352 11.1941 9.23707 11.1897L9.68895 10.2937C9.69284 10.2856 9.69766 10.278 9.70332 10.2709L9.89645 10.0119C9.90051 10.0075 9.90301 10.0034 9.90676 9.99875C9.89082 9.98719 9.87801 9.97656 9.86207 9.96438C9.85863 9.96844 9.85551 9.97188 9.8527 9.97594C9.7852 10.0606 9.71863 10.1459 9.6527 10.2303C9.6452 10.2381 9.63832 10.2463 9.62988 10.2534C9.38363 10.4738 9.13738 10.6928 8.8902 10.9134C8.8852 10.9175 8.8802 10.9219 8.87395 10.9247C8.87676 10.9219 8.87832 10.9184 8.8802 10.9162C9.08301 10.6897 9.28426 10.4634 9.48613 10.2369C9.4977 10.2244 9.50926 10.2119 9.5202 10.1984C9.54332 10.1716 9.56926 10.1478 9.59738 10.1266L9.82176 9.95C9.82676 9.94625 9.83051 9.94219 9.83613 9.93844C9.82504 9.92347 9.81358 9.90877 9.80176 9.89437C9.79676 9.8975 9.7927 9.90062 9.78801 9.90406C9.70207 9.96844 9.61582 10.0322 9.52988 10.0969C9.52026 10.1041 9.51002 10.1105 9.49926 10.1159C9.20582 10.2641 8.91082 10.4122 8.61676 10.5603C8.61113 10.5628 8.60582 10.5659 8.59926 10.5659L8.61113 10.5575L9.15988 10.1981C9.25551 10.1353 9.35145 10.0725 9.44645 10.0094C9.45457 10.0047 9.46301 10.0006 9.4702 9.99688C9.56988 9.95469 9.66926 9.91219 9.76801 9.86969C9.7727 9.86781 9.77738 9.86594 9.78301 9.86313L9.76207 9.81156C9.75613 9.81312 9.75238 9.81469 9.7477 9.81625C9.64645 9.85656 9.54613 9.8975 9.44426 9.9375C9.42332 9.94531 9.40051 9.94906 9.37832 9.95375L8.69551 10.0956C8.60957 10.1141 8.52207 10.1322 8.43582 10.15C8.43234 10.1508 8.42869 10.1504 8.42551 10.1487C8.44926 10.1412 8.47301 10.1328 8.49645 10.125C8.79145 10.0278 9.08613 9.93094 9.3802 9.83312C9.40332 9.82531 9.42801 9.82312 9.45145 9.81937C9.54645 9.80625 9.64113 9.7925 9.7352 9.77906C9.74097 9.77805 9.74671 9.7768 9.75238 9.77531C9.75051 9.75719 9.7477 9.73906 9.74613 9.72031L9.70051 9.72531L9.51176 9.74813C9.47645 9.75281 9.44145 9.75656 9.40676 9.76094C9.39832 9.76187 9.3902 9.76219 9.38207 9.76187L9.18332 9.75031L9.06582 9.74375L8.86332 9.73188L8.56801 9.71563C8.49676 9.71188 8.42738 9.70719 8.35645 9.70219C8.3677 9.70125 8.3802 9.69938 8.39238 9.69938L8.63457 9.68562L8.95457 9.6675L9.21957 9.6525L9.38582 9.6425C9.39238 9.64219 9.4002 9.64312 9.40676 9.64375L9.59738 9.66656L9.73238 9.68281H9.74613C9.7477 9.665 9.75051 9.64813 9.75238 9.62875C9.74082 9.62625 9.7277 9.62438 9.71613 9.62219C9.6327 9.61063 9.54988 9.59844 9.46645 9.58625C9.44911 9.58427 9.43182 9.58197 9.41457 9.57937C9.40501 9.57808 9.39559 9.57588 9.38645 9.57281C9.13801 9.49125 8.89113 9.40906 8.64301 9.3275C8.57396 9.30486 8.505 9.28195 8.43613 9.25875C8.43018 9.25717 8.42457 9.25453 8.41957 9.25094L8.46301 9.25969L8.99332 9.37C9.1352 9.39969 9.27926 9.42906 9.42113 9.45906C9.42967 9.46095 9.43804 9.46356 9.44613 9.46687C9.54613 9.50625 9.6452 9.54687 9.74613 9.58687L9.76113 9.59281C9.76801 9.57562 9.77551 9.55906 9.78301 9.54125C9.77792 9.53821 9.77259 9.5356 9.76707 9.53344C9.6677 9.49156 9.56863 9.44875 9.46957 9.40594C9.46179 9.40265 9.45427 9.39878 9.44707 9.39438C9.16676 9.21094 8.8877 9.02656 8.60707 8.84281C8.60337 8.84076 8.60042 8.83759 8.59863 8.83375L8.60988 8.84C8.88926 8.98063 9.16895 9.12125 9.44895 9.26156C9.4952 9.28469 9.5402 9.3125 9.58145 9.34406C9.64957 9.39687 9.71895 9.4475 9.78832 9.49937C9.79301 9.50281 9.79707 9.50594 9.80207 9.50906L9.83645 9.46562L9.82426 9.455L9.5702 9.25531C9.56145 9.24844 9.55457 9.24125 9.54707 9.23375C9.32582 8.98594 9.10426 8.73781 8.88363 8.49C8.88044 8.48744 8.87797 8.48411 8.87645 8.48031C8.88301 8.48094 8.88551 8.48531 8.88832 8.48812C9.02238 8.60687 9.1552 8.72562 9.28832 8.84437L9.6327 9.15125C9.63895 9.15688 9.64488 9.16375 9.65051 9.17L9.8477 9.42062C9.8527 9.42625 9.85645 9.43219 9.86207 9.43969L9.90738 9.405C9.90457 9.40062 9.90082 9.39719 9.89863 9.39312C9.83426 9.30719 9.7702 9.22094 9.7052 9.13531C9.6985 9.12523 9.69235 9.1148 9.68676 9.10406C9.53676 8.80875 9.38801 8.51219 9.23895 8.21656C9.23613 8.21094 9.23332 8.20656 9.2327 8.20062C9.23551 8.20375 9.23832 8.20656 9.2402 8.20937L9.55957 8.6975L9.78551 9.04125C9.79332 9.05437 9.80207 9.06812 9.80707 9.0825C9.84926 9.17875 9.88988 9.27531 9.93082 9.37156C9.93363 9.37594 9.93551 9.38062 9.93832 9.38625L9.9902 9.36469L9.98457 9.35156C9.94551 9.25406 9.90738 9.15656 9.8677 9.05969C9.85676 9.035 9.8527 9.00937 9.84738 8.98375C9.81332 8.82094 9.78051 8.65781 9.74645 8.49469C9.71301 8.33781 9.68113 8.18219 9.64832 8.02469C9.6477 8.02375 9.64832 8.0225 9.64957 8.01937L9.67707 8.10281C9.7752 8.3975 9.87238 8.69281 9.96863 8.98812C9.97676 9.01125 9.97957 9.03656 9.98301 9.06062C9.99457 9.1425 10.0061 9.225 10.0193 9.3075C10.0214 9.32313 10.0224 9.33875 10.0255 9.35594L10.0799 9.34906V9.32844C10.0721 9.26312 10.0636 9.1975 10.0561 9.1325C10.0514 9.09437 10.048 9.05719 10.0427 9.02C10.0396 8.99499 10.0396 8.96969 10.0427 8.94469C10.0449 8.90219 10.048 8.86 10.0499 8.81781L10.0652 8.56312C10.068 8.5175 10.0689 8.47125 10.0718 8.42562C10.0758 8.36625 10.0789 8.30594 10.0824 8.24625C10.0852 8.2025 10.0874 8.15844 10.0893 8.115C10.0918 8.06344 10.0958 8.01219 10.1002 7.96094C10.1014 7.975 10.1021 7.98937 10.1027 8.00437C10.1071 8.06719 10.1102 8.13 10.1139 8.19312L10.1302 8.47937L10.1399 8.64C10.1449 8.73281 10.1493 8.82594 10.1546 8.91875C10.1561 8.93281 10.1568 8.94594 10.1577 8.95969C10.1618 8.99594 10.1546 9.03188 10.1514 9.06781L10.1314 9.23156C10.1283 9.2625 10.1236 9.29344 10.1199 9.32469C10.1193 9.33219 10.1193 9.34031 10.1171 9.34937C10.1364 9.35219 10.1539 9.35406 10.1733 9.35656C10.1761 9.34312 10.1774 9.33063 10.1796 9.3175C10.1946 9.21594 10.2089 9.11437 10.2233 9.01219C10.2246 9.00469 10.2277 8.99687 10.2296 8.98906C10.3314 8.68344 10.4314 8.3775 10.5327 8.07125C10.5377 8.05719 10.5414 8.04375 10.5493 8.03031C10.5484 8.03744 10.5473 8.04453 10.5458 8.05156C10.5002 8.27281 10.4527 8.49344 10.4074 8.71406C10.3871 8.8175 10.3655 8.92125 10.3439 9.02469C10.3424 9.03326 10.3397 9.04157 10.3358 9.04938L10.2152 9.35094C10.213 9.35531 10.2114 9.36 10.2093 9.36562C10.228 9.37281 10.2433 9.38 10.2614 9.38719L10.2686 9.37219L10.3946 9.07625C10.3996 9.06625 10.4033 9.05656 10.4099 9.04844L10.9552 8.21656C10.9586 8.21219 10.9614 8.20781 10.9668 8.20469C10.9646 8.20906 10.963 8.21344 10.9602 8.21781L10.5118 9.10844C10.5071 9.11687 10.5024 9.12531 10.4968 9.13281C10.4318 9.21938 10.3664 9.30594 10.3024 9.39187C10.2993 9.3968 10.2958 9.4015 10.2921 9.40594L10.3364 9.44062C10.34 9.4369 10.3432 9.43293 10.3461 9.42875C10.4124 9.34437 10.4783 9.25969 10.5455 9.17531C10.5529 9.16582 10.5612 9.15703 10.5702 9.14906C10.8171 8.92844 11.0643 8.70812 11.3114 8.48812C11.3155 8.48469 11.3183 8.48125 11.3249 8.47937L11.3168 8.48938C11.2158 8.60344 11.1149 8.71687 11.0124 8.83031C10.8905 8.96625 10.7702 9.10187 10.6493 9.23781C10.643 9.24469 10.6355 9.25062 10.6289 9.25625L10.3749 9.45594L10.3624 9.46594C10.3743 9.48094 10.3849 9.49531 10.3974 9.51031L10.4108 9.50031L10.6711 9.30531C10.6778 9.30058 10.6847 9.2962 10.6918 9.29219C10.9918 9.14156 11.2899 8.99156 11.588 8.84094C11.593 8.83875 11.5971 8.83687 11.6024 8.83687C11.5886 8.84594 11.5758 8.85469 11.5621 8.86312C11.2924 9.04031 11.0227 9.2175 10.7521 9.39469C10.7446 9.39906 10.7377 9.40344 10.7296 9.40687C10.6299 9.45 10.5293 9.4925 10.4305 9.53531L10.4146 9.54156C10.423 9.55906 10.4289 9.57563 10.4364 9.59312L10.4508 9.58844C10.5511 9.54875 10.6508 9.50719 10.7521 9.46875C10.7771 9.45875 10.8046 9.45438 10.8318 9.44875L11.2921 9.35313C11.4352 9.32375 11.5771 9.29375 11.7205 9.26406C11.7336 9.26125 11.7458 9.25844 11.7596 9.25594C11.763 9.25594 11.7661 9.25531 11.7711 9.25719L11.7274 9.27156C11.4221 9.3725 11.1177 9.47312 10.8124 9.57281C10.7893 9.58094 10.7636 9.58312 10.7396 9.58687C10.6711 9.59719 10.6036 9.60625 10.5371 9.61594C10.5127 9.61937 10.4886 9.62312 10.4643 9.62625L10.4464 9.62937C10.4483 9.64781 10.4511 9.665 10.4524 9.685L10.4996 9.68L10.6683 9.66C10.7105 9.65469 10.7546 9.64875 10.7986 9.64469C10.8183 9.64312 10.8383 9.645 10.8586 9.64594C10.9014 9.64781 10.9443 9.65156 10.9889 9.65344L11.2414 9.66844C11.2789 9.67062 11.3164 9.67219 11.3552 9.67469L11.6127 9.68937C11.6736 9.69312 11.7364 9.69594 11.7971 9.69969C11.8121 9.70055 11.8271 9.7019 11.8421 9.70375L11.7964 9.7075L11.6074 9.71781L11.3733 9.73156L11.1968 9.74094C11.1155 9.74594 11.0327 9.75063 10.9508 9.75594C10.9058 9.75781 10.8596 9.76219 10.8143 9.7625C10.7883 9.76312 10.7611 9.75812 10.7358 9.75531C10.6803 9.7488 10.6248 9.74213 10.5693 9.73531L10.4627 9.7225H10.4524C10.4511 9.74062 10.4483 9.75844 10.4464 9.7775C10.5566 9.79381 10.6668 9.80975 10.7771 9.82531C10.8096 9.82938 10.838 9.84219 10.8686 9.85187L11.7574 10.1453C11.7632 10.1465 11.7686 10.149 11.7733 10.1525C11.7658 10.1512 11.7586 10.15 11.7511 10.1494L10.9793 9.98844L10.7755 9.94594C10.7689 9.94406 10.7602 9.94156 10.753 9.93813C10.6527 9.89844 10.5521 9.85781 10.4511 9.8175L10.4377 9.81281C10.4304 9.82993 10.4228 9.84691 10.4149 9.86375L10.4314 9.87156C10.5311 9.91406 10.6302 9.95625 10.7293 9.99906C10.7371 10.0025 10.7449 10.0066 10.753 10.0122L11.5849 10.5572C11.5889 10.5603 11.5943 10.5641 11.5977 10.57C11.5936 10.5675 11.5889 10.5659 11.5855 10.5634L11.1521 10.3459C11.0008 10.2691 10.8483 10.1928 10.6955 10.1159C10.6858 10.1111 10.6766 10.1051 10.6683 10.0981C10.5824 10.0341 10.4955 9.96969 10.4096 9.905C10.4057 9.90176 10.4017 9.89884 10.3974 9.89625C10.3855 9.91062 10.3749 9.92469 10.3624 9.93969L10.3743 9.94906C10.458 10.0159 10.5433 10.0828 10.6274 10.1494C10.637 10.1562 10.6457 10.1642 10.6533 10.1731L11.3155 10.9141C11.3182 10.9178 11.3203 10.9219 11.3218 10.9263C11.3183 10.9225 11.3136 10.92 11.3102 10.9172C11.0618 10.695 10.813 10.4741 10.5639 10.2522C10.5583 10.2472 10.5533 10.2415 10.5489 10.2353L10.3464 9.97719C10.3436 9.97312 10.3402 9.96938 10.3368 9.96531C10.3224 9.97719 10.3083 9.98781 10.2939 10.0003C10.2952 10.0041 10.298 10.0081 10.3005 10.0119L10.4971 10.2737C10.5027 10.2814 10.5077 10.2894 10.5121 10.2978C10.6611 10.5934 10.8099 10.8897 10.9586 11.1856C10.9611 11.1896 10.9627 11.1941 10.9633 11.1987H10.9624V11.1962Z" fill="#010088"/>
<path fill-rule="evenodd" clip-rule="evenodd" d="M10.96 11.1992C10.9631 11.2023 10.965 11.2058 10.9675 11.2086C10.9659 11.2092 10.9659 11.2102 10.964 11.2105C10.9634 11.2061 10.9612 11.2033 10.9606 11.1992H10.96Z" fill="#010088"/>
</svg>
