<svg width="24" height="24" viewBox="0 0 24 24" fill="none" xmlns="http://www.w3.org/2000/svg">
<g clip-path="url(#clip0_1024_18147)">
<path d="M23.1237 13.4932C23.1936 13.0031 23.2297 12.5087 23.2318 12.0137C23.2317 9.03328 22.0478 6.17497 19.9403 4.06753C17.8328 1.96008 14.9745 0.776134 11.9941 0.776134C11.4991 0.778197 11.0048 0.81429 10.5147 0.884134C7.74464 -0.608741 4.32323 -0.107272 2.09826 2.11788C-0.126798 4.34285 -0.628267 7.76417 0.864608 10.5342C0.794764 11.0243 0.758671 11.5186 0.756514 12.0137C0.756514 18.2201 5.7878 23.2513 11.9941 23.2513C12.4891 23.2492 12.9836 23.2131 13.4737 23.1433C16.2436 24.6362 19.665 24.1347 21.8901 21.9095C24.1151 19.6846 24.6166 16.2632 23.1237 13.4932Z" fill="white"/>
<path d="M7.12449 14.2573C11.054 14.2573 14.2395 11.0718 14.2395 7.14231C14.2395 3.21282 11.054 0.0273438 7.12449 0.0273438C3.195 0.0273438 0.00952148 3.21282 0.00952148 7.14231C0.00952148 11.0718 3.195 14.2573 7.12449 14.2573Z" fill="#5E6368"/>
<path d="M16.865 23.9956C20.7945 23.9956 23.9799 20.8101 23.9799 16.8806C23.9799 12.9511 20.7945 9.76562 16.865 9.76562C12.9355 9.76562 9.75 12.9511 9.75 16.8806C9.75 20.8101 12.9355 23.9956 16.865 23.9956Z" fill="#00B8F0"/>
<mask id="mask0_1024_18147" style="mask-type:luminance" maskUnits="userSpaceOnUse" x="0" y="0" width="24" height="24">
<path d="M16.8659 9.76761C15.5938 9.76736 14.3451 10.109 13.2503 10.7567C15.0817 7.66854 14.3283 3.69982 11.4925 1.49754C8.65688 -0.704927 4.62535 -0.452458 2.08641 2.08648C-0.452434 4.62532 -0.704903 8.65695 1.49747 11.4926C3.69975 14.3284 7.66838 15.0817 10.7567 13.2503C9.117 16.0293 9.55266 19.5638 11.8181 21.8615C14.0837 24.1591 17.6117 24.6444 20.4135 23.0439C23.2153 21.4435 24.5893 18.1579 23.7608 15.0394C22.9325 11.9208 20.1093 9.75017 16.8824 9.75101L16.8659 9.76761Z" fill="white"/>
</mask>
<g mask="url(#mask0_1024_18147)">
<path d="M11.7691 25.8202C19.1117 25.8202 25.064 19.8679 25.064 12.5253C25.064 5.18279 19.1117 -0.769531 11.7691 -0.769531C4.42656 -0.769531 -1.52576 5.18279 -1.52576 12.5253C-1.52576 19.8679 4.42656 25.8202 11.7691 25.8202Z" fill="#00B8F0"/>
</g>
<path d="M11.9947 23.2487C18.2011 23.2487 23.2323 18.2174 23.2323 12.0111C23.2323 5.80469 18.2011 0.773438 11.9947 0.773438C5.78834 0.773438 0.75708 5.80469 0.75708 12.0111C0.75708 18.2174 5.78834 23.2487 11.9947 23.2487Z" fill="url(#paint0_linear_1024_18147)"/>
<path d="M11.9947 23.2487C18.2011 23.2487 23.2323 18.2174 23.2323 12.0111C23.2323 5.80469 18.2011 0.773438 11.9947 0.773438C5.78834 0.773438 0.75708 5.80469 0.75708 12.0111C0.75708 18.2174 5.78834 23.2487 11.9947 23.2487Z" fill="url(#paint1_linear_1024_18147)"/>
<path d="M7.89744 10.6325C7.63316 10.137 7.50146 9.58151 7.51513 9.02004C7.49814 8.3104 7.74046 7.61892 8.19669 7.0751C8.67671 6.53351 9.28984 6.12665 9.97541 5.89479C10.7201 5.63201 11.5047 5.49985 12.2944 5.50414C12.812 5.50052 13.3291 5.53944 13.8403 5.62048C14.2049 5.68158 14.5636 5.77334 14.9127 5.89479C15.2297 6.00429 15.5151 6.18979 15.7438 6.43507C15.9185 6.63188 16.0133 6.88682 16.0098 7.14992C16.0162 7.28785 15.9953 7.42569 15.9482 7.5555C15.9011 7.68531 15.8288 7.80453 15.7355 7.90629C15.6484 7.99899 15.5426 8.07212 15.4251 8.12084C15.3076 8.16955 15.1811 8.19273 15.0539 8.18886C14.876 8.18609 14.7005 8.14648 14.5386 8.07251C14.1471 7.89907 13.7444 7.75187 13.3333 7.63189C12.9509 7.53187 12.5567 7.48437 12.1615 7.4907C11.6492 7.4735 11.1424 7.60016 10.6985 7.85632C10.5117 7.96985 10.359 8.13174 10.2566 8.32488C10.1542 8.51802 10.1058 8.73523 10.1167 8.95357C10.1137 9.23757 10.221 9.51166 10.4159 9.7182C10.6544 9.96424 10.9362 10.1643 11.2471 10.3084C11.5879 10.4746 12.0783 10.699 12.7765 10.9817L12.9926 11.0647C13.6519 11.316 14.2841 11.6335 14.8794 12.0123C15.3537 12.3197 15.754 12.7285 16.0513 13.2092C16.3437 13.7134 16.4905 14.2889 16.4753 14.8715C16.4988 15.5853 16.2919 16.2877 15.8851 16.8747C15.4678 17.4394 14.8877 17.8628 14.2228 18.0883C13.4363 18.3687 12.6055 18.5039 11.7707 18.4872C10.6294 18.5251 9.49387 18.3093 8.44597 17.8555C8.17753 17.7347 7.94124 17.5525 7.75616 17.3236C7.61049 17.1078 7.53502 16.8524 7.54006 16.5921C7.53095 16.455 7.55231 16.3176 7.6026 16.1897C7.6529 16.0618 7.73089 15.9466 7.83097 15.8524C8.03875 15.6685 8.31017 15.573 8.58734 15.5864C8.89723 15.5908 9.20178 15.6677 9.47666 15.8108C9.81744 15.977 10.0834 16.1101 10.3078 16.1931C10.5303 16.2871 10.7614 16.3595 10.9977 16.4092C11.2894 16.4756 11.5881 16.5063 11.8872 16.5007C12.4165 16.5397 12.9436 16.3991 13.3832 16.1017C13.5493 15.9746 13.6821 15.8092 13.7704 15.6196C13.8587 15.43 13.8998 15.2218 13.8902 15.0129C13.8982 14.7051 13.7848 14.4065 13.5744 14.1817C13.3033 13.9053 12.9888 13.6751 12.6434 13.5002C12.2362 13.284 11.6544 13.0264 10.9147 12.7105C10.25 12.4458 9.61253 12.1173 9.01119 11.7297C8.56156 11.4306 8.16959 11.099 7.89744 10.6325Z" fill="white"/>
</g>
<defs>
<linearGradient id="paint0_linear_1024_18147" x1="684.814" y1="363.164" x2="1808.58" y2="2309.81" gradientUnits="userSpaceOnUse">
<stop stop-color="#00B7F0"/>
<stop offset="1" stop-color="#007CC1"/>
</linearGradient>
<linearGradient id="paint1_linear_1024_18147" x1="1026.44" y1="2244.14" x2="1222.6" y2="4.9314" gradientUnits="userSpaceOnUse">
<stop stop-color="#0078D4"/>
<stop offset="1" stop-color="#00BCF2"/>
</linearGradient>
<clipPath id="clip0_1024_18147">
<rect width="24" height="24" fill="white"/>
</clipPath>
</defs>
</svg>
